<svg id="visual" viewBox="0 0 900 600" width="900" height="600" xmlns="http://www.w3.org/2000/svg" xmlns:xlink="http://www.w3.org/1999/xlink" version="1.1"><path d="M0 79L82 43L164 103L245 67L327 73L409 91L491 55L573 37L655 79L736 79L818 67L900 79L900 0L818 0L736 0L655 0L573 0L491 0L409 0L327 0L245 0L164 0L82 0L0 0Z" fill="#00cc8e"></path><path d="M0 133L82 121L164 217L245 193L327 157L409 229L491 205L573 193L655 223L736 199L818 133L900 229L900 77L818 65L736 77L655 77L573 35L491 53L409 89L327 71L245 65L164 101L82 41L0 77Z" fill="#00b98a"></path><path d="M0 385L82 355L164 385L245 361L327 343L409 331L491 349L573 367L655 319L736 301L818 319L900 349L900 227L818 131L736 197L655 221L573 191L491 203L409 227L327 155L245 191L164 215L82 119L0 131Z" fill="#00a784"></path><path d="M0 487L82 445L164 493L245 469L327 457L409 427L491 427L573 463L655 367L736 361L818 367L900 403L900 347L818 317L736 299L655 317L573 365L491 347L409 329L327 341L245 359L164 383L82 353L0 383Z" fill="#00957c"></path><path d="M0 601L82 601L164 601L245 601L327 601L409 601L491 601L573 601L655 601L736 601L818 601L900 601L900 401L818 365L736 359L655 365L573 461L491 425L409 425L327 455L245 467L164 491L82 443L0 485Z" fill="#038373"></path></svg>