<svg id="visual" viewBox="0 0 2500 750" width="2500" height="750" xmlns="http://www.w3.org/2000/svg" xmlns:xlink="http://www.w3.org/1999/xlink" version="1.1"><path d="M0 530L83.3 455C166.7 380 333.3 230 500 213.3C666.7 196.7 833.3 313.3 1000 342.3C1166.7 371.3 1333.3 312.7 1500 292.7C1666.7 272.7 1833.3 291.3 2000 310.2C2166.7 329 2333.3 348 2416.7 357.5L2500 367L2500 0L2416.7 0C2333.3 0 2166.7 0 2000 0C1833.3 0 1666.7 0 1500 0C1333.3 0 1166.7 0 1000 0C833.3 0 666.7 0 500 0C333.3 0 166.7 0 83.3 0L0 0Z" fill="#6cf9d7" stroke-linecap="round" stroke-linejoin="miter"></path></svg>