<svg id="visual" viewBox="0 0 960 540" width="960" height="540" xmlns="http://www.w3.org/2000/svg" xmlns:xlink="http://www.w3.org/1999/xlink" version="1.1"><path d="M0 402L32 383.7C64 365.3 128 328.7 192 314C256 299.3 320 306.7 384 314.3C448 322 512 330 576 319.8C640 309.7 704 281.3 768 267.2C832 253 896 253 928 253L960 253L960 541L928 541C896 541 832 541 768 541C704 541 640 541 576 541C512 541 448 541 384 541C320 541 256 541 192 541C128 541 64 541 32 541L0 541Z" fill="#6cf9d7" stroke-linecap="round" stroke-linejoin="miter"></path></svg>