<svg id="visual" viewBox="0 0 900 600" width="900" height="600" xmlns="http://www.w3.org/2000/svg" xmlns:xlink="http://www.w3.org/1999/xlink" version="1.1"><path d="M0 326L30 331.3C60 336.7 120 347.3 180 314C240 280.7 300 203.3 360 208.3C420 213.3 480 300.7 540 314C600 327.3 660 266.7 720 260.5C780 254.3 840 302.7 870 326.8L900 351L900 0L870 0C840 0 780 0 720 0C660 0 600 0 540 0C480 0 420 0 360 0C300 0 240 0 180 0C120 0 60 0 30 0L0 0Z" fill="#6cf9d7" stroke-linecap="round" stroke-linejoin="miter"></path></svg>