<svg id="visual" viewBox="0 0 960 640" width="960" height="640" xmlns="http://www.w3.org/2000/svg" xmlns:xlink="http://www.w3.org/1999/xlink" version="1.1"><path d="M0 61L32 60.2C64 59.3 128 57.7 192 120.5C256 183.3 320 310.7 384 313C448 315.3 512 192.7 576 172.2C640 151.7 704 233.3 768 238.8C832 244.3 896 173.7 928 138.3L960 103L960 0L928 0C896 0 832 0 768 0C704 0 640 0 576 0C512 0 448 0 384 0C320 0 256 0 192 0C128 0 64 0 32 0L0 0Z" fill="#6cf9d7" stroke-linecap="round" stroke-linejoin="miter"></path></svg>