<svg id="visual" viewBox="0 0 900 600" width="900" height="600" xmlns="http://www.w3.org/2000/svg" xmlns:xlink="http://www.w3.org/1999/xlink" version="1.1"><path d="M0 309L30 335C60 361 120 413 180 445C240 477 300 489 360 456.5C420 424 480 347 540 352C600 357 660 444 720 451.8C780 459.7 840 388.3 870 352.7L900 317L900 601L870 601C840 601 780 601 720 601C660 601 600 601 540 601C480 601 420 601 360 601C300 601 240 601 180 601C120 601 60 601 30 601L0 601Z" fill="#6cf9d7" stroke-linecap="round" stroke-linejoin="miter"></path></svg>