<svg id="visual" viewBox="0 0 900 450" width="900" height="450" xmlns="http://www.w3.org/2000/svg" xmlns:xlink="http://www.w3.org/1999/xlink" version="1.1"><path d="M0 318L30 273C60 228 120 138 180 128C240 118 300 188 360 205.3C420 222.7 480 187.3 540 175.2C600 163 660 174 720 185.3C780 196.7 840 208.3 870 214.2L900 220L900 0L870 0C840 0 780 0 720 0C660 0 600 0 540 0C480 0 420 0 360 0C300 0 240 0 180 0C120 0 60 0 30 0L0 0Z" fill="#6cf9d7" stroke-linecap="round" stroke-linejoin="miter"></path></svg>